<?xml version="1.0" encoding="utf-8" ?>	<!-- Generator: Assembly 2.4 - http://assemblyapp.co -->	<svg version="1.1" xmlns="http://www.w3.org/2000/svg" xmlns:xlink="http://www.w3.org/1999/xlink" width="4096.00" height="4096.00" viewBox="0 0 4096.0 4096.0">		<g id="document" transform="scale(13.653333333333334 13.653333333333334) translate(150.0 150.0)">			<path d="M-8.8705,-1.66883 L8.80117,-1.66883 C18.708,-1.66883 27.0084,-9.70141 27.0084,-19.876 L27.0084,-32.9959 C12.0142,-30.0506 -1.10567,-29.2473 -12.0835,-29.7829 C-12.8868,-29.7829 -13.4223,-29.7829 -14.2255,-29.7829 C-18.7773,-30.0506 -23.0614,-30.3184 -26.8099,-30.8539 L-26.8099,-19.876 C-27.0777,-9.96916 -19.0451,-1.66883 -8.8705,-1.66883 Z M95.8208,-107.431 C98.766,-109.573 99.5693,-113.857 97.4273,-116.802 C95.2853,-119.748 91.0012,-120.551 88.0559,-118.409 C81.0944,-113.589 74.6683,-95.3822 82.4331,-84.4044 C82.4331,-90.0272 81.8976,-97.5243 95.8208,-107.431 Z M35.8442,-76.104 C51.9093,-81.9946 57.7999,-77.1751 62.6194,-73.962 C58.0676,-86.5464 39.325,-91.3659 31.2924,-88.6884 C27.8116,-87.3497 25.9373,-83.6011 27.2761,-80.1203 C28.6149,-76.6396 32.3634,-74.7653 35.8442,-76.104 Z M-106.6,-30.5861 C-90.535,-36.4767 -84.6445,-31.6571 -79.8249,-28.4441 C-84.3767,-41.0285 -103.119,-45.848 -111.152,-43.1705 C-114.633,-41.8317 -116.507,-38.0832 -115.168,-34.6024 C-113.83,-31.1216 -110.081,-29.2473 -106.6,-30.5861 Z M71.4553,-81.1913 C68.7778,-85.7431 62.3517,-96.9888 66.368,-113.322 C66.368,-113.322 66.368,-113.322 66.368,-113.322 C66.6357,-114.125 66.6357,-114.928 66.6357,-115.731 C66.6357,-119.748 63.1549,-123.229 59.1387,-123.229 C55.3901,-123.229 52.1771,-120.283 51.6416,-116.802 C51.6416,-116.802 51.6416,-116.802 51.6416,-116.802 C50.8383,-110.376 52.4448,-92.9725 71.4553,-81.1913 Z M73.3295,-90.2949 C74.1328,-90.2949 74.6683,-90.8304 74.6683,-91.6337 L74.6683,-112.251 C74.6683,-113.054 74.1328,-113.589 73.3295,-113.589 C72.5263,-113.589 71.9908,-113.054 71.9908,-112.251 L71.9908,-91.6337 C71.9908,-91.0982 72.794,-90.2949 73.3295,-90.2949 Z M58.0676,-84.1366 C58.3354,-83.8689 58.6032,-83.8689 58.8709,-83.8689 C59.1387,-83.8689 59.6742,-84.1366 59.9419,-84.4044 C60.4774,-84.9399 60.4774,-85.7431 59.9419,-86.2787 L44.9478,-100.47 C44.4123,-101.005 43.609,-101.005 43.0735,-100.47 C42.538,-99.934 42.538,-99.1308 43.0735,-98.5953 L58.0676,-84.1366 Z M-39.3943,48.9364 C-51.1754,47.8654 -58.9402,46.2589 -63.492,45.4556 C-65.3663,48.4009 -67.2406,51.0784 -69.3826,53.4882 L-69.9181,52.9527 C-67.2406,56.1657 -65.634,60.182 -65.634,64.4661 C-65.634,66.8758 -66.1695,69.2856 -66.9728,71.4276 L-62.421,123.907 L-62.421,124.175 L-54.1207,124.175 L-47.1591,124.175 L-54.3884,115.875 L-54.9239,95.7931 L-47.6946,59.9143 C-44.4816,56.4335 -41.5363,52.9527 -39.3943,48.9364 Z M138.126,-23.089 C138.126,-23.3568 138.126,-23.3568 137.858,-23.6245 C137.858,-23.6245 137.858,-23.8923 137.59,-23.8923 C134.377,-33.5314 135.18,-57.6291 136.251,-62.4487 C136.519,-63.7874 136.787,-65.1262 136.787,-66.465 C136.787,-72.891 132.503,-78.2461 126.612,-79.8526 C126.077,-80.9236 125.809,-81.1913 125.274,-82.2624 C126.345,-85.7431 126.88,-89.2239 126.88,-92.437 C123.667,-90.5627 120.454,-87.3497 117.776,-83.6011 C117.509,-83.6011 117.509,-83.6011 117.241,-83.8689 C116.973,-88.4207 115.902,-92.7047 114.296,-95.9177 C113.492,-94.579 112.689,-92.9725 111.886,-91.0982 C111.886,-91.0982 111.886,-90.8304 111.886,-90.8304 C111.35,-89.2239 110.815,-87.6174 110.279,-86.0109 C109.744,-83.8689 109.208,-81.4591 109.208,-79.0493 C109.208,-77.4428 109.208,-75.8363 109.208,-74.2298 C109.208,-73.1588 108.405,-72.0878 107.334,-72.0878 C107.334,-72.0878 107.334,-72.0878 107.334,-72.0878 C106.263,-72.0878 105.46,-72.891 105.192,-73.962 C105.192,-75.8363 105.192,-77.4428 105.192,-79.3171 C105.46,-81.4591 105.728,-83.8689 106.263,-85.7431 C104.924,-85.7431 103.853,-86.0109 102.515,-86.0109 C77.6136,-86.0109 56.7289,-69.9457 49.2318,-47.4545 C47.3575,-41.564 42.538,-37.5477 36.6474,-35.6734 C35.0409,-35.4057 33.7022,-34.8702 32.0956,-34.6024 L32.0956,-20.4115 C32.0956,-7.55939 21.6533,3.15071 8.53342,3.15071 L-9.13825,3.15071 C-21.9904,3.15071 -32.7005,-7.29164 -32.7005,-20.4115 L-32.7005,-31.6571 C-38.591,-32.7281 -43.1428,-33.5314 -45.8204,-34.0669 C-51.7109,-35.4057 -58.137,-35.4057 -64.563,-33.5314 C-80.0927,-28.7118 -91.606,-14.7887 -92.4093,1.27644 C-92.677,6.09599 -91.8738,10.6478 -90.535,14.9318 C-90.2673,16.2706 -90.2673,17.6094 -90.2673,19.2159 C-90.2673,34.7455 -100.442,48.1331 -114.365,52.9527 C-117.043,53.7559 -118.917,56.1657 -119.185,58.8432 L-128.288,124.175 L-126.414,124.175 L-118.381,124.175 L-110.884,124.175 L-116.775,115.607 L-108.207,70.0889 C-107.671,67.1436 -105.529,65.0016 -102.584,64.7338 C-86.5187,63.1273 -73.1311,53.2204 -65.9018,39.5651 C-62.9565,40.6361 -59.208,41.7071 -55.9949,41.9748 C-29.2197,45.4556 41.7347,53.2204 66.368,38.2263 C66.368,38.2263 66.368,38.2263 66.6357,38.2263 L78.9523,56.7012 C82.4331,62.0563 84.3074,68.2146 84.3074,74.3729 L84.3074,124.175 L86.7172,124.175 L94.7498,124.175 L101.979,124.175 L94.7498,115.875 L94.7498,33.9423 C91.8045,34.4778 88.8592,34.7455 85.6462,34.7455 C67.1712,34.7455 50.3028,23.7677 42.538,7.167 C42.0025,5.82824 42.538,4.22172 43.8768,3.68622 C45.2155,3.15071 46.822,3.68622 47.3575,5.02498 C47.893,6.09599 48.4286,7.167 49.2318,8.23801 C49.2318,8.50576 49.4996,8.50576 49.4996,8.77352 C52.1771,13.3253 55.6579,17.3416 59.6742,20.5546 C59.9419,20.8224 60.2097,21.0901 60.4774,21.0901 C61.8162,22.1611 63.1549,22.9644 64.4937,23.7677 C65.5647,24.3032 66.6357,24.8387 67.439,25.3742 C67.9745,25.6419 68.2422,25.9097 68.7778,25.9097 C74.1328,28.3195 80.0234,29.6582 86.4494,29.6582 C96.624,29.6582 105.995,26.1774 113.492,20.2869 C114.563,19.2159 116.438,20.2869 116.17,21.8934 L110.815,51.6139 L105.995,56.969 L117.509,67.1436 L117.509,55.6302 L133.574,17.0738 C134.377,15.1996 133.842,13.0576 132.503,11.451 L126.077,5.02498 C125.006,3.95397 123.399,3.15071 121.525,3.15071 L95.2853,3.15071 C96.8918,-2.20434 97.695,-7.82714 97.695,-13.4499 C97.695,-23.3568 95.2853,-32.7281 90.7335,-40.7607 C90.198,-42.635 89.6625,-44.5092 89.6625,-46.6513 C89.6625,-48.5255 89.9302,-50.132 90.4657,-51.7386 L90.4657,-52.0063 C90.7335,-53.0773 91.5367,-53.6128 92.6077,-53.6128 C93.6787,-53.6128 94.482,-53.0773 94.7498,-52.0063 L94.7498,-51.7386 C96.0885,-45.0448 100.64,-39.6897 106.799,-37.5477 C110.547,-34.8702 119.651,-22.2858 121.257,-17.1985 C121.257,-17.1985 121.257,-17.1985 121.257,-17.1985 C122.596,-13.9855 125.541,-11.5757 129.29,-11.5757 C133.574,-11.5757 137.322,-14.7887 137.858,-19.0728 C138.929,-20.4115 138.929,-21.4825 138.126,-23.089 Z " fill="#0693e3" fill-opacity="1.00" />			<path d="M-14.0755,-10.6594 L3.59613,-10.6594 C13.503,-10.6594 21.8033,-18.6919 21.8033,-28.8665 L21.8033,-41.9864 C6.80916,-39.0411 -6.31072,-38.2379 -17.2886,-38.7734 C-18.0918,-38.7734 -18.6273,-38.7734 -19.4306,-38.7734 C-23.9824,-39.0411 -28.2664,-39.3089 -32.015,-39.8444 L-32.015,-28.8665 C-32.2827,-18.9597 -24.2501,-10.6594 -14.0755,-10.6594 Z M90.6157,-116.422 C93.561,-118.564 94.3642,-122.848 92.2222,-125.793 C90.0802,-128.738 85.7962,-129.542 82.8509,-127.399 C75.8893,-122.58 69.4633,-104.373 77.2281,-93.3949 C77.2281,-99.0177 76.6926,-106.515 90.6157,-116.422 Z M30.6391,-85.0946 C46.7043,-90.9851 52.5948,-86.1656 57.4144,-82.9526 C52.8626,-95.5369 34.1199,-100.356 26.0873,-97.679 C22.6066,-96.3402 20.7323,-92.5917 22.0711,-89.1109 C23.4098,-85.6301 27.1584,-83.7558 30.6391,-85.0946 Z M-111.805,-39.5766 C-95.7401,-45.4672 -89.8495,-40.6477 -85.03,-37.4346 C-89.5818,-50.019 -108.324,-54.8385 -116.357,-52.161 C-119.838,-50.8223 -121.712,-47.0737 -120.373,-43.5929 C-119.035,-40.1122 -115.286,-38.2379 -111.805,-39.5766 Z M66.2502,-90.1819 C63.5727,-94.7337 57.1466,-105.979 61.1629,-122.312 C61.1629,-122.312 61.1629,-122.312 61.1629,-122.312 C61.4307,-123.115 61.4307,-123.919 61.4307,-124.722 C61.4307,-128.738 57.9499,-132.219 53.9336,-132.219 C50.1851,-132.219 46.972,-129.274 46.4365,-125.793 C46.4365,-125.793 46.4365,-125.793 46.4365,-125.793 C45.6333,-119.367 47.2398,-101.963 66.2502,-90.1819 Z M68.1245,-99.2855 C68.9278,-99.2855 69.4633,-99.821 69.4633,-100.624 L69.4633,-121.241 C69.4633,-122.044 68.9278,-122.58 68.1245,-122.58 C67.3212,-122.58 66.7857,-122.044 66.7857,-121.241 L66.7857,-100.624 C66.7857,-100.089 67.589,-99.2855 68.1245,-99.2855 Z M52.8626,-93.1272 C53.1304,-92.8594 53.3981,-92.8594 53.6659,-92.8594 C53.9336,-92.8594 54.4691,-93.1272 54.7369,-93.3949 C55.2724,-93.9304 55.2724,-94.7337 54.7369,-95.2692 L39.7427,-109.46 C39.2072,-109.996 38.404,-109.996 37.8685,-109.46 C37.3329,-108.925 37.3329,-108.121 37.8685,-107.586 L52.8626,-93.1272 Z M-44.5993,39.9459 C-56.3804,38.8749 -64.1453,37.2683 -68.6971,36.4651 C-70.5713,39.4104 -72.4456,42.0879 -74.5876,44.4977 L-75.1231,43.9622 C-72.4456,47.1752 -70.8391,51.1915 -70.8391,55.4755 C-70.8391,57.8853 -71.3746,60.2951 -72.1779,62.4371 L-67.6261,114.917 L-67.6261,115.184 L-59.3257,115.184 L-52.3642,115.184 L-59.5935,106.884 L-60.129,86.8026 L-52.8997,50.9237 C-49.6866,47.4429 -46.7414,43.9622 -44.5993,39.9459 Z M132.921,-32.0796 C132.921,-32.3473 132.921,-32.3473 132.653,-32.6151 C132.653,-32.6151 132.653,-32.8828 132.385,-32.8828 C129.172,-42.5219 129.975,-66.6197 131.046,-71.4392 C131.314,-72.778 131.582,-74.1167 131.582,-75.4555 C131.582,-81.8816 127.298,-87.2366 121.407,-88.8431 C120.872,-89.9141 120.604,-90.1819 120.068,-91.2529 C121.14,-94.7337 121.675,-98.2145 121.675,-101.427 C118.462,-99.5532 115.249,-96.3402 112.571,-92.5917 C112.304,-92.5917 112.304,-92.5917 112.036,-92.8594 C111.768,-97.4112 110.697,-101.695 109.091,-104.908 C108.287,-103.57 107.484,-101.963 106.681,-100.089 C106.681,-100.089 106.681,-99.821 106.681,-99.821 C106.145,-98.2145 105.61,-96.6079 105.074,-95.0014 C104.539,-92.8594 104.003,-90.4496 104.003,-88.0399 C104.003,-86.4333 104.003,-84.8268 104.003,-83.2203 C104.003,-82.1493 103.2,-81.0783 102.129,-81.0783 C102.129,-81.0783 102.129,-81.0783 102.129,-81.0783 C101.058,-81.0783 100.255,-81.8816 99.9871,-82.9526 C99.9871,-84.8268 99.9871,-86.4333 99.9871,-88.3076 C100.255,-90.4496 100.523,-92.8594 101.058,-94.7337 C99.7193,-94.7337 98.6483,-95.0014 97.3095,-95.0014 C72.4085,-95.0014 51.5238,-78.9363 44.0268,-56.4451 C42.1525,-50.5545 37.3329,-46.5382 31.4424,-44.6639 C29.8359,-44.3962 28.4971,-43.8607 26.8906,-43.5929 L26.8906,-29.4021 C26.8906,-16.5499 16.4482,-5.83982 3.32837,-5.83982 L-14.3433,-5.83982 C-27.1954,-5.83982 -37.9055,-16.2822 -37.9055,-29.4021 L-37.9055,-40.6477 C-43.7961,-41.7187 -48.3479,-42.5219 -51.0254,-43.0574 C-56.916,-44.3962 -63.342,-44.3962 -69.7681,-42.5219 C-85.2977,-37.7024 -96.8111,-23.7792 -97.6143,-7.71409 C-97.8821,-2.89455 -97.0788,1.65725 -95.7401,5.94129 C-95.4723,7.28005 -95.4723,8.61881 -95.4723,10.2253 C-95.4723,25.755 -105.647,39.1426 -119.57,43.9622 C-122.248,44.7654 -124.122,47.1752 -124.39,49.8527 L-133.493,115.184 L-131.619,115.184 L-123.586,115.184 L-116.089,115.184 L-121.98,106.616 L-113.412,61.0983 C-112.876,58.153 -110.734,56.011 -107.789,55.7433 C-91.7238,54.1368 -78.3362,44.2299 -71.1068,30.5745 C-68.1616,31.6455 -64.413,32.7165 -61.2,32.9843 C-34.4247,36.4651 36.5297,44.2299 61.1629,29.2358 C61.1629,29.2358 61.1629,29.2358 61.4307,29.2358 L73.7473,47.7107 C77.2281,53.0657 79.1024,59.2241 79.1024,65.3824 L79.1024,115.184 L81.5121,115.184 L89.5447,115.184 L96.774,115.184 L89.5447,106.884 L89.5447,24.9517 C86.5994,25.4872 83.6541,25.755 80.4411,25.755 C61.9662,25.755 45.0978,14.7771 37.3329,-1.82354 C36.7974,-3.1623 37.3329,-4.76881 38.6717,-5.30432 C40.0105,-5.83982 41.617,-5.30432 42.1525,-3.96556 C42.688,-2.89455 43.2235,-1.82354 44.0268,-0.752526 C44.0268,-0.484773 44.2945,-0.484773 44.2945,-0.21702 C46.972,4.33477 50.4528,8.35106 54.4691,11.5641 C54.7369,11.8318 55.0046,12.0996 55.2724,12.0996 C56.6111,13.1706 57.9499,13.9739 59.2887,14.7771 C60.3597,15.3126 61.4307,15.8481 62.2339,16.3836 C62.7694,16.6514 63.0372,16.9191 63.5727,16.9191 C68.9278,19.3289 74.8183,20.6677 81.2444,20.6677 C91.419,20.6677 100.79,17.1869 108.287,11.2963 C109.358,10.2253 111.233,11.2963 110.965,12.9029 L105.61,42.6234 L100.79,47.9784 L112.304,58.153 L112.304,46.6397 L128.369,8.08331 C129.172,6.20904 128.637,4.06702 127.298,2.46051 L120.872,-3.96556 C119.801,-5.03657 118.194,-5.83982 116.32,-5.83982 L90.0802,-5.83982 C91.6867,-11.1949 92.49,-16.8177 92.49,-22.4405 C92.49,-32.3473 90.0802,-41.7187 85.5284,-49.7512 C84.9929,-51.6255 84.4574,-53.4998 84.4574,-55.6418 C84.4574,-57.5161 84.7252,-59.1226 85.2607,-60.7291 L85.2607,-60.9969 C85.5284,-62.0679 86.3317,-62.6034 87.4027,-62.6034 C88.4737,-62.6034 89.2769,-62.0679 89.5447,-60.9969 L89.5447,-60.7291 C90.8835,-54.0353 95.4353,-48.6802 101.594,-46.5382 C105.342,-43.8607 114.446,-31.2763 116.052,-26.189 C116.052,-26.189 116.052,-26.189 116.052,-26.189 C117.391,-22.976 120.336,-20.5662 124.085,-20.5662 C128.369,-20.5662 132.117,-23.7792 132.653,-28.0633 C133.724,-29.4021 133.724,-30.4731 132.921,-32.0796 Z " fill="#00d084" fill-opacity="1.00" />		</g>	</svg>