<?xml version="1.0" encoding="utf-8" ?>	<!-- Generator: Assembly 2.4 - http://assemblyapp.co -->	<svg version="1.1" xmlns="http://www.w3.org/2000/svg" xmlns:xlink="http://www.w3.org/1999/xlink" width="4096.00" height="4096.00" viewBox="0 0 4096.0 4096.0">		<g id="document" transform="scale(13.653333333333334 13.653333333333334) translate(150.0 150.0)">			<path d="M-100.037,129.222 C-100.37,129.889 -100.37,130.556 -99.7029,131.224 C-99.3692,131.891 -98.7019,132.225 -98.0345,132.225 L-71.6748,132.225 C-71.0075,132.225 -70.0065,131.557 -69.6728,130.89 L-66.3361,123.883 L-17.6207,99.5254 L31.0947,131.891 C31.4284,132.225 31.7621,132.225 32.0957,132.225 L60.1238,132.225 C60.7911,132.225 61.4585,131.891 61.7921,131.224 C62.1258,130.556 62.4595,129.889 62.1258,129.222 L41.1048,71.4973 C68.7992,70.83 120.851,51.1436 125.189,33.4592 C127.191,24.7839 124.188,15.7749 119.517,8.76786 C116.18,3.42918 111.842,-1.24216 107.171,-5.57984 C88.4855,-24.2652 63.7941,-39.9476 40.4374,-51.9596 L42.7731,-92.3333 C48.7791,-94.0017 53.7841,-98.3394 56.4535,-104.012 C61.4585,-114.689 56.4535,-127.702 45.7761,-132.373 C35.0988,-137.378 22.0857,-132.373 17.4144,-121.696 C14.745,-115.356 15.0787,-108.349 18.4154,-102.343 L-9.94634,-73.9816 C-32.9694,-82.3233 -59.3291,-89.664 -84.0205,-90.3313 C-95.6988,-90.9987 -114.718,-88.663 -122.392,-77.3183 C-129.733,-66.641 -130.067,-43.6179 -108.712,-7.91551 C-97.0335,11.7709 -79.6828,28.4542 -60.6638,41.1336 L-100.037,129.222 Z M-27.9644,92.5184 L-59.6628,108.201 L-46.9834,79.839 L-27.9644,92.5184 C-27.9644,92.5184 -27.9644,92.5184 -27.9644,92.5184 Z M-6.94333,93.853 L14.745,82.842 L27.0907,116.542 L-6.94333,93.853 C-6.94333,93.853 -6.94333,93.853 -6.94333,93.853 Z M11.4084,72.4983 L-16.9534,87.1797 L-42.3121,70.1626 L-35.6387,55.1476 L-33.3031,56.1486 C-19.6227,62.1546 -4.94133,66.4923 10.0737,69.1616 L11.4084,72.4983 C11.4084,72.4983 11.4084,72.4983 11.4084,72.4983 Z M-9.61267,5.76485 L14.745,-48.6229 C19.7501,-46.2873 24.4214,-43.9516 29.4264,-41.6159 L26.0897,20.1125 C14.0777,15.7749 2.06568,11.1035 -9.61267,5.76485 C-9.61267,5.76485 -9.61267,5.76485 -9.61267,5.76485 Z M20.7511,-61.9696 L32.7631,-90.3313 L30.4274,-57.2983 C27.0907,-58.9666 24.0877,-60.635 20.7511,-61.9696 Z M22.7531,-94.0017 L22.0857,-90.9987 L11.0747,-66.3073 C8.0717,-67.642 4.73502,-68.9766 1.39835,-70.3113 L22.7531,-94.0017 Z M5.06869,-52.9606 L-19.289,1.42717 C-30.9674,-4.24517 -41.9784,-9.91752 -52.9894,-16.2572 L-9.94634,-58.9666 C-4.94133,-56.9646 0.0636809,-54.9626 5.06869,-52.9606 C5.06869,-52.9606 5.06869,-52.9606 5.06869,-52.9606 Z M36.4334,23.4492 L39.4364,-36.6109 C58.7891,-26.6009 78.8092,-14.5889 95.1589,-0.241162 C101.165,5.09752 115.513,18.4442 111.509,27.4532 C106.837,37.7969 81.1448,33.7929 72.4695,32.4582 C60.4575,30.4562 48.1118,27.1196 36.4334,23.4492 C36.4334,23.4492 36.4334,23.4492 36.4334,23.4492 Z M-62.3321,-21.9295 C-71.6748,-27.6019 -81.3512,-34.2752 -89.6928,-41.2822 C-96.0325,-46.2873 -113.383,-61.636 -109.046,-71.3123 C-105.375,-79.9877 -87.6908,-78.653 -80.3501,-77.9857 C-60.3301,-75.9836 -39.9764,-69.644 -20.9574,-63.3043 L-62.3321,-21.9295 Z " fill="#0693e3" fill-opacity="1.00" />			<path d="M-106.917,123.442 C-107.251,124.109 -107.251,124.777 -106.584,125.444 C-106.25,126.111 -105.583,126.445 -104.915,126.445 L-78.5555,126.445 C-77.8881,126.445 -76.8871,125.778 -76.5535,125.11 L-73.2168,118.103 L-24.5014,93.7457 L24.2141,126.111 C24.5477,126.445 24.8814,126.445 25.2151,126.445 L53.2431,126.445 C53.9105,126.445 54.5778,126.111 54.9115,125.444 C55.2451,124.777 55.5788,124.109 55.2451,123.442 L34.2241,65.7176 C61.9185,65.0503 113.971,45.3639 118.308,27.6796 C120.31,19.0042 117.307,9.9952 112.636,2.98818 C109.299,-2.35049 104.962,-7.02184 100.29,-11.3595 C81.6049,-30.0449 56.9135,-45.7272 33.5568,-57.7393 L35.8924,-98.113 C41.8984,-99.7814 46.9034,-104.119 49.5728,-109.791 C54.5778,-120.469 49.5728,-133.482 38.8954,-138.153 C28.2181,-143.158 15.205,-138.153 10.5337,-127.476 C7.86437,-121.136 8.19803,-114.129 11.5347,-108.123 L-16.827,-79.7613 C-39.8501,-88.103 -66.2098,-95.4437 -90.9012,-96.111 C-102.58,-96.7784 -121.599,-94.4427 -129.273,-83.098 C-136.614,-72.4206 -136.947,-49.3976 -115.593,-13.6952 C-103.914,5.99119 -86.5635,22.6746 -67.5445,35.3539 L-106.917,123.442 Z M-34.8451,86.7387 L-66.5435,102.421 L-53.8641,74.0593 L-34.8451,86.7387 C-34.8451,86.7387 -34.8451,86.7387 -34.8451,86.7387 Z M-13.824,88.0734 L7.86437,77.0623 L20.2101,110.763 L-13.824,88.0734 C-13.824,88.0734 -13.824,88.0734 -13.824,88.0734 Z M4.52769,66.7187 L-23.834,81.4 L-49.1927,64.383 L-42.5194,49.3679 L-40.1837,50.369 C-26.5034,56.375 -11.822,60.7126 3.19302,63.382 L4.52769,66.7187 C4.52769,66.7187 4.52769,66.7187 4.52769,66.7187 Z M-16.4933,-0.0148212 L7.86437,-54.4026 C12.8694,-52.0669 17.5407,-49.7313 22.5457,-47.3956 L19.2091,14.3329 C7.19703,9.9952 -4.81499,5.32386 -16.4933,-0.0148212 C-16.4933,-0.0148212 -16.4933,-0.0148212 -16.4933,-0.0148212 Z M13.8704,-67.7493 L25.8824,-96.111 L23.5467,-63.0779 C20.2101,-64.7463 17.2071,-66.4146 13.8704,-67.7493 Z M15.8724,-99.7814 L15.205,-96.7784 L4.19403,-72.087 C1.19102,-73.4216 -2.14565,-74.7563 -5.48233,-76.091 L15.8724,-99.7814 Z M-1.81199,-58.7403 L-26.1697,-4.3525 C-37.8481,-10.0248 -48.8591,-15.6972 -59.8701,-22.0369 L-16.827,-64.7463 C-11.822,-62.7443 -6.817,-60.7423 -1.81199,-58.7403 C-1.81199,-58.7403 -1.81199,-58.7403 -1.81199,-58.7403 Z M29.5527,17.6695 L32.5558,-42.3906 C51.9085,-32.3806 71.9285,-20.3685 88.2782,-6.02083 C94.2842,-0.682156 108.632,12.6645 104.628,21.6736 C99.9566,32.0172 74.2642,28.0132 65.5888,26.6786 C53.5768,24.6766 41.2311,21.3399 29.5527,17.6695 C29.5527,17.6695 29.5527,17.6695 29.5527,17.6695 Z M-69.2128,-27.7092 C-78.5555,-33.3816 -88.2318,-40.0549 -96.5735,-47.0619 C-102.913,-52.0669 -120.264,-67.4156 -115.926,-77.092 C-112.256,-85.7673 -94.5715,-84.4327 -87.2308,-83.7653 C-67.2108,-81.7633 -46.8571,-75.4236 -27.838,-69.084 L-69.2128,-27.7092 Z " fill="#00d084" fill-opacity="1.00" />		</g>	</svg>