<?xml version="1.0" encoding="utf-8" ?>	<!-- Generator: Assembly 2.4 - http://assemblyapp.co -->	<svg version="1.1" xmlns="http://www.w3.org/2000/svg" xmlns:xlink="http://www.w3.org/1999/xlink" width="4096.00" height="4096.00" viewBox="0 0 4096.0 4096.0">		<g id="document" transform="scale(13.653333333333334 13.653333333333334) translate(150.0 150.0)">			<path d="M16.9761,57.2942 C34.061,43.5703 54.2269,25.6451 75.513,1.55811 C141.892,-73.7837 137.069,-140.758 137.069,-140.758 C137.069,-140.758 86.4362,-129.24 11.3745,-62.5805 C-12.7125,-41.2943 -30.9178,-21.4085 -44.3617,-4.04351 C-70.4092,-6.00408 -90.575,3.51868 -90.575,3.51868 L-107.301,23.4044 C-87.4151,14.7219 -87.982,28.8984 -74.5381,33.9398 C-79.8596,44.3029 -81.6124,56.7341 -81.6124,56.7341 L-80.212,58.1345 C-65.0877,41.3296 -42.121,22.2841 -10.1918,13.3215 L3.53219,9.68046 L-0.108862,23.4044 C-9.07145,55.3337 -10.4719,72.1385 -27.2767,87.2629 L-10.1918,70.9206 C-10.1918,70.9206 -37.6397,92.8645 -27.5568,87.2629 C-22.7954,100.987 -18.8743,121.153 -27.2767,140.758 L9.69397,103.788 C9.41389,103.508 18.9367,83.3418 16.9761,57.2942 Z M60.1086,-47.4561 C51.7061,-55.8585 51.7061,-69.8626 60.1086,-78.265 C68.511,-86.6674 82.5151,-86.6674 90.9175,-78.265 C99.3199,-69.8626 99.3199,-55.8585 90.9175,-47.4561 C82.5151,-39.0536 68.511,-39.0536 60.1086,-47.4561 Z " fill="#0693e3" fill-opacity="1.00" />			<path d="M4.58321,55.0669 C22.1241,40.9767 42.8281,22.5731 64.6823,-2.15667 C132.833,-79.5091 137.146,-140.758 137.146,-140.758 C137.146,-140.758 75.897,-136.445 -1.1679,-68.0069 C-25.8977,-46.1527 -44.5888,-25.7362 -58.3914,-7.90777 C-85.1341,-9.92067 -105.838,-0.143775 -105.838,-0.143775 L-143.795,37.8136 C-123.379,28.8993 -102.675,32.9251 -88.8723,38.1011 C-94.3359,48.7407 -96.6363,54.4918 -96.6363,54.4918 L-95.1985,55.9295 C-79.6705,38.6762 -56.091,19.1224 -23.3097,9.92066 L-9.21945,6.18244 L-12.9577,20.2727 C-22.1594,53.054 -41.7132,76.6335 -58.9665,92.1615 L-57.5288,93.5993 C-57.5288,93.5993 -51.4901,91.5864 -41.1381,85.8353 C-36.2497,99.9255 -32.2239,120.63 -40.8506,140.758 L-2.89323,102.801 C-3.18079,102.514 6.5961,81.8095 4.58321,55.0669 Z M48.8668,-52.4789 C40.2401,-61.1055 40.2401,-75.4833 48.8668,-84.11 C57.4934,-92.7366 71.8712,-92.7366 80.4979,-84.11 C89.1245,-75.4833 89.1245,-61.1055 80.4979,-52.4789 C71.8712,-43.8522 57.4934,-43.8522 48.8668,-52.4789 Z " fill="#00d084" fill-opacity="1.00" />		</g>	</svg>