<?xml version="1.0" encoding="utf-8" ?>	<!-- Generator: Assembly 2.4 - http://assemblyapp.co -->	<svg version="1.1" xmlns="http://www.w3.org/2000/svg" xmlns:xlink="http://www.w3.org/1999/xlink" width="4096.00" height="4096.00" viewBox="0 0 4096.0 4096.0">		<g id="document" transform="scale(13.653333333333334 13.653333333333334) translate(150.0 150.0)">			<path d="M13.2629,23.2567 C16.1614,23.2567 18.4157,23.2567 20.6701,23.2567 C50.9432,23.2567 81.2163,23.2567 111.489,23.2567 C123.727,23.2567 126.626,20.6803 126.626,8.1202 C126.626,-30.5263 126.304,-69.4948 126.626,-108.141 C126.626,-118.447 123.405,-122.312 113.1,-122.312 C39.0272,-122.312 -35.0452,-122.312 -109.44,-122.312 C-119.745,-122.312 -122.966,-119.091 -122.966,-109.107 C-122.966,-69.8169 -122.966,-30.2042 -122.966,9.08636 C-122.966,20.0362 -119.745,22.9347 -108.796,22.9347 C-78.2005,22.9347 -47.6054,22.9347 -16.6882,22.9347 C-14.4338,22.9347 -11.8574,22.9347 -9.60297,22.9347 C-9.60297,67.0561 -9.60297,91.2101 -9.60297,134.687 L12.9408,134.687 C13.2629,91.5322 13.2629,67.3781 13.2629,23.2567 Z M-49.8597,-10.881 C-71.4374,-10.881 -91.7268,-31.1704 -91.7268,-52.748 C-91.7268,-74.0036 -71.4374,-93.9709 -50.1818,-93.9709 C-28.2821,-93.9709 -8.63681,-74.0036 -8.63681,-52.1039 C-8.63681,-30.5263 -28.6042,-10.881 -49.8597,-10.881 Z M54.1637,-93.9709 C76.0634,-93.9709 96.0308,-73.6815 95.7087,-52.1039 C95.3866,-30.8483 75.0972,-10.5589 53.8417,-10.881 C32.2641,-10.881 11.9746,-31.4925 12.2967,-52.748 C12.6188,-74.3256 32.5861,-93.9709 54.1637,-93.9709 Z M-30.2144,-52.1039 C-30.2144,-63.1316 -39.1541,-72.0713 -50.1818,-72.0713 C-61.2094,-72.0713 -70.1491,-63.1316 -70.1491,-52.1039 C-70.1491,-41.0762 -61.2094,-32.1366 -50.1818,-32.1366 C-39.1541,-32.1366 -30.2144,-41.0762 -30.2144,-52.1039 Z M73.809,-52.1039 C73.809,-63.1316 64.8693,-72.0713 53.8417,-72.0713 C42.814,-72.0713 33.8743,-63.1316 33.8743,-52.1039 C33.8743,-41.0762 42.814,-32.1366 53.8417,-32.1366 C64.8693,-32.1366 73.809,-41.0762 73.809,-52.1039 Z " fill="#0693e3" fill-opacity="1.00" />			<path d="M3.98264,15.1365 C6.88113,15.1365 9.13551,15.1365 11.3899,15.1365 C41.663,15.1365 71.936,15.1365 102.209,15.1365 C114.447,15.1365 117.346,12.5601 117.346,0 C117.346,-38.6465 117.024,-77.615 117.346,-116.262 C117.346,-126.567 114.125,-130.432 103.819,-130.432 C29.747,-130.432 -44.3255,-130.432 -118.72,-130.432 C-129.026,-130.432 -132.246,-127.211 -132.246,-117.228 C-132.246,-77.9371 -132.246,-38.3244 -132.246,0.966162 C-132.246,11.916 -129.026,14.8145 -118.076,14.8145 C-87.4807,14.8145 -56.8856,14.8145 -25.9684,14.8145 C-23.714,14.8145 -21.1376,14.8145 -18.8832,14.8145 C-18.8832,58.9359 -18.8832,83.0899 -18.8832,126.567 L3.66059,126.567 C3.98264,83.412 3.98264,59.2579 3.98264,15.1365 Z M-59.14,-19.0012 C-80.7176,-19.0012 -101.007,-39.2906 -101.007,-60.8682 C-101.007,-82.1238 -80.7176,-102.091 -59.462,-102.091 C-37.5623,-102.091 -17.917,-82.1238 -17.917,-60.2241 C-17.917,-38.6465 -37.8844,-19.0012 -59.14,-19.0012 Z M44.8835,-102.091 C66.7832,-102.091 86.7505,-81.8017 86.4285,-60.2241 C86.1064,-38.9685 65.817,-18.6791 44.5615,-19.0012 C22.9838,-19.0012 2.69442,-39.6126 3.01648,-60.8682 C3.33853,-82.4458 23.3059,-102.091 44.8835,-102.091 Z M-39.4947,-60.2241 C-39.4947,-71.2518 -48.4343,-80.1915 -59.462,-80.1915 C-70.4897,-80.1915 -79.4294,-71.2518 -79.4294,-60.2241 C-79.4294,-49.1964 -70.4897,-40.2568 -59.462,-40.2568 C-48.4343,-40.2568 -39.4947,-49.1964 -39.4947,-60.2241 Z M64.5288,-60.2241 C64.5288,-71.2518 55.5891,-80.1915 44.5614,-80.1915 C33.5338,-80.1915 24.5941,-71.2518 24.5941,-60.2241 C24.5941,-49.1964 33.5338,-40.2568 44.5614,-40.2568 C55.5891,-40.2568 64.5288,-49.1964 64.5288,-60.2241 Z " fill="#00d084" fill-opacity="1.00" />		</g>	</svg>