<?xml version="1.0" encoding="utf-8" ?>	<!-- Generator: Assembly 2.4 - http://assemblyapp.co -->	<svg version="1.1" xmlns="http://www.w3.org/2000/svg" xmlns:xlink="http://www.w3.org/1999/xlink" width="4096.00" height="4096.00" viewBox="0 0 4096.0 4096.0">		<g id="document" transform="scale(13.653333333333334 13.653333333333334) translate(150.0 150.0)">			<path d="M-105.166,130.168 L131.21,130.168 L131.21,-106.207 L-105.166,-106.207 L-105.166,130.168 Z " fill="#0693e3" fill-opacity="1.00" />			<path d="M-118.188,118.188 L118.188,118.188 L118.188,-118.188 L-118.188,-118.188 L-118.188,118.188 Z " fill="#00d084" fill-opacity="1.00" />			<path d="M-3.25826,105.138 L4.28676,103.374 L4.28676,-106.207 L-3.25826,-106.207 L-3.25826,105.138 Z M-105.92,3.01198 L105.92,3.01198 L105.92,-5.03704 L-105.92,-5.03704 L-105.92,3.01198 Z " fill="#0693e3" fill-opacity="1.00" />			<path d="M-57.0346,-35.2022 C-43.5262,-35.2022 -32.5909,-46.1375 -32.5909,-59.6459 C-32.5909,-73.1542 -43.5262,-84.0896 -57.0346,-84.0896 C-70.5429,-84.0896 -81.4783,-73.1542 -81.4783,-59.6459 C-81.4783,-46.1375 -70.5429,-35.2022 -57.0346,-35.2022 Z " fill="#0693e3" fill-opacity="1.00" />			<path d="M84.669,36.9131 L79.7314,31.9755 L60.2253,51.4816 L40.7193,31.9755 L35.7816,36.9131 L55.2877,56.4192 L35.7816,75.9253 L40.7193,80.8629 L60.2253,61.3568 L79.7314,80.8629 L84.669,75.9253 L65.163,56.4192 L84.669,36.9131 Z " fill="#0693e3" fill-opacity="1.00" />		</g>	</svg>