<?xml version="1.0" encoding="utf-8" ?>	<!-- Generator: Assembly 2.4 - http://assemblyapp.co -->	<svg version="1.1" xmlns="http://www.w3.org/2000/svg" xmlns:xlink="http://www.w3.org/1999/xlink" width="4096.00" height="4096.00" viewBox="0 0 4096.0 4096.0">		<g id="document" transform="scale(13.653333333333334 13.653333333333334) translate(150.0 150.0)">			<path d="M138.173,0.299262 C137.874,73.3191 78.9193,132.573 5.60021,132.573 C-67.7189,132.573 -126.673,73.3191 -126.673,1.50597e-07 C-126.673,-73.3191 -67.4196,-132.573 5.89948,-132.573 L5.89948,-118.807 C-59.6388,-118.807 -112.907,-65.5383 -112.907,0.299262 C-112.907,65.5383 -59.9381,119.405 6.19874,119.405 C71.4378,119.405 125.305,66.4361 125.305,0.299262 L139.071,0.299262 L138.173,0.299262 Z M5.30095,95.1652 C-47.3691,95.1652 -89.8642,52.9693 -89.8642,1.50597e-07 C-89.8642,-52.9693 -47.3691,-94.8659 5.30095,-94.8659 C57.971,-94.8659 100.765,-52.9693 100.765,1.50597e-07 L112.137,1.50597e-07 C111.838,-57.7575 64.2555,-105.34 6.19874,-105.34 C-51.858,-105.34 -99.4406,-57.7575 -99.4406,1.50597e-07 C-99.4406,57.7575 -52.7558,105.639 6.19874,105.639 L6.19874,94.8659 L5.30095,95.1652 Z M-67.7189,1.50597e-07 C-67.7189,-40.1011 -34.8001,-73.0198 5.30095,-73.0198 C46.0005,-73.0198 78.3208,-40.1011 78.3208,1.50597e-07 C78.3208,40.1011 45.402,73.0198 5.30095,73.0198 L5.30095,81.6984 C50.1902,81.6984 86.7001,45.4878 86.7001,0.299262 C86.7001,-44.59 50.4895,-80.8006 5.30095,-80.8006 C-39.8876,-80.8006 -76.0982,-45.1885 -76.0982,1.50598e-07 L-67.7189,1.50598e-07 L-67.7189,1.50597e-07 Z M5.60021,-52.67 C34.6286,-52.67 58.2703,-29.0284 58.2703,1.50597e-07 C58.2703,29.6269 34.6286,52.67 5.60021,52.67 C-23.4282,52.67 -47.0698,29.0284 -47.0698,1.50597e-07 L-53.0551,1.50597e-07 C-53.0551,32.3203 -26.72,58.6553 5.60021,58.6553 C37.9205,58.6553 64.5548,32.6195 64.5548,1.50597e-07 C64.5548,-32.6195 37.9205,-58.6553 5.60021,-58.6553 L5.60021,-52.67 Z " fill="#0693e3" fill-opacity="1.00" />			<path d="M132.022,0.299262 C131.722,73.3191 72.7679,132.573 -0.551205,132.573 C-73.8703,132.573 -132.825,73.3191 -132.825,-1.04707e-13 C-132.825,-73.3191 -73.571,-132.573 -0.251943,-132.573 L-0.251943,-118.807 C-65.7902,-118.807 -119.059,-65.5383 -119.059,0.299262 C-119.059,65.5383 -66.0895,119.405 0.0473186,119.405 C65.2863,119.405 119.153,66.4361 119.153,0.299262 L132.919,0.299262 L132.022,0.299262 Z M-0.850466,95.1652 C-53.5205,95.1652 -96.0157,52.9693 -96.0157,-1.04707e-13 C-96.0157,-52.9693 -53.5205,-94.8659 -0.850466,-94.8659 C51.8196,-94.8659 94.614,-52.9693 94.614,-1.04707e-13 L105.986,-1.04707e-13 C105.687,-57.7575 58.1041,-105.34 0.0473186,-105.34 C-58.0094,-105.34 -105.592,-57.7575 -105.592,-1.04707e-13 C-105.592,57.7575 -58.9072,105.639 0.0473186,105.639 L0.0473186,94.8659 L-0.850466,95.1652 Z M-73.8703,-1.04707e-13 C-73.8703,-40.1011 -40.9515,-73.0198 -0.850466,-73.0198 C39.8491,-73.0198 72.1694,-40.1011 72.1694,-1.04707e-13 C72.1694,40.1011 39.2506,73.0198 -0.850466,73.0198 L-0.850466,81.6984 C44.0388,81.6984 80.5487,45.4878 80.5487,0.299262 C80.5487,-44.59 44.338,-80.8006 -0.850466,-80.8006 C-46.039,-80.8006 -82.2496,-45.1885 -82.2496,5.75735e-13 L-73.8703,5.75735e-13 L-73.8703,-1.04707e-13 Z M-0.551205,-52.67 C28.4772,-52.67 52.1188,-29.0284 52.1188,-1.04707e-13 C52.1188,29.6269 28.4772,52.67 -0.551205,52.67 C-29.5796,52.67 -53.2212,29.0284 -53.2212,-1.04707e-13 L-59.2065,-1.04707e-13 C-59.2065,32.3203 -32.8715,58.6553 -0.551205,58.6553 C31.769,58.6553 58.4033,32.6195 58.4033,-1.04707e-13 C58.4033,-32.6195 31.769,-58.6553 -0.551205,-58.6553 L-0.551205,-52.67 Z " fill="#00d084" fill-opacity="1.00" />		</g>	</svg>