<svg xmlns="http://www.w3.org/2000/svg" xmlns:xlink="http://www.w3.org/1999/xlink" width="180" zoomAndPan="magnify" viewBox="0 0 135 30.000001" height="40" preserveAspectRatio="xMidYMid meet" version="1.0"><defs><filter x="0%" y="0%" width="100%" height="100%" id="id1"><feColorMatrix values="0 0 0 0 1 0 0 0 0 1 0 0 0 0 1 0 0 0 1 0" color-interpolation-filters="sRGB"/></filter><g/><mask id="id2"><g filter="url(#id1)"><rect x="-13.5" width="162" fill="rgb(0%, 0%, 0%)" y="-3" height="36.000001" fill-opacity="0.898"/></g></mask><clipPath id="id3"><path d="M 1.023438 0.144531 L 18.726562 0.144531 L 18.726562 17.5625 L 1.023438 17.5625 Z M 1.023438 0.144531 " clip-rule="nonzero"/></clipPath><clipPath id="id4"><path d="M 8.996094 17.585938 C 8.945312 17.585938 8.890625 17.585938 8.839844 17.585938 C 4.761719 17.46875 1.03125 12.96875 1.023438 8.757812 L 1.023438 8.734375 C 1.023438 8.164062 1.09375 7.601562 1.238281 7.054688 C 2.347656 2.902344 7.421875 1.421875 9.027344 0.949219 C 9.964844 0.675781 11.738281 0.160156 13.511719 0.15625 L 13.546875 0.15625 C 14.855469 0.15625 16.164062 0.441406 17.140625 1.3125 C 19.910156 3.78125 18.207031 9.339844 16.25 12.386719 C 15.519531 13.523438 12.910156 17.585938 8.996094 17.585938 Z M 8.996094 17.585938 " clip-rule="nonzero"/></clipPath><clipPath id="id5"><rect x="0" width="19" y="0" height="18"/></clipPath><mask id="id6"><g filter="url(#id1)"><rect x="-13.5" width="162" fill="rgb(0%, 0%, 0%)" y="-3" height="36.000001" fill-opacity="0.898"/></g></mask><clipPath id="id7"><path d="M 0.925781 0.351562 L 21.351562 0.351562 L 21.351562 14.871094 L 0.925781 14.871094 Z M 0.925781 0.351562 " clip-rule="nonzero"/></clipPath><clipPath id="id8"><path d="M 10.976562 14.878906 C 9.964844 14.878906 4.058594 14.695312 1.734375 10.828125 C 1.167969 9.886719 0.929688 8.914062 0.925781 7.964844 L 0.925781 7.945312 C 0.933594 5.65625 2.324219 3.507812 3.882812 2.253906 C 5.855469 0.664062 8.289062 0.355469 9.90625 0.355469 L 9.929688 0.355469 C 10.546875 0.355469 11.042969 0.398438 11.347656 0.433594 C 15.328125 0.890625 20.386719 3.480469 21.117188 6.996094 C 21.996094 11.195312 16.304688 14.804688 11.09375 14.878906 C 11.074219 14.878906 11.046875 14.878906 11.015625 14.878906 Z M 10.976562 14.878906 " clip-rule="nonzero"/></clipPath><clipPath id="id9"><rect x="0" width="22" y="0" height="16"/></clipPath><mask id="id10"><g filter="url(#id1)"><rect x="-13.5" width="162" fill="rgb(0%, 0%, 0%)" y="-3" height="36.000001" fill-opacity="0.8196"/></g></mask><clipPath id="id11"><path d="M 0.65625 1.101562 L 18.074219 1.101562 L 18.074219 19.972656 L 0.65625 19.972656 Z M 0.65625 1.101562 " clip-rule="nonzero"/></clipPath><clipPath id="id12"><path d="M 10.960938 20.007812 C 10.753906 20.007812 10.546875 19.996094 10.34375 19.972656 C 7.066406 19.625 5.136719 16.46875 3.808594 14.296875 C 3.425781 13.671875 0.671875 9.171875 0.660156 5.648438 L 0.660156 5.605469 C 0.664062 4.839844 0.796875 4.121094 1.113281 3.503906 C 1.925781 1.917969 3.875 1.105469 6.167969 1.101562 L 6.203125 1.101562 C 9.28125 1.105469 12.96875 2.570312 15.339844 5.59375 C 15.761719 6.132812 18.089844 9.101562 18.105469 12.636719 L 18.105469 12.699219 C 18.101562 13.320312 18.027344 13.960938 17.859375 14.605469 C 16.945312 18.089844 13.742188 20.007812 10.960938 20.007812 Z M 10.960938 20.007812 " clip-rule="nonzero"/></clipPath><clipPath id="id13"><rect x="0" width="19" y="0" height="21"/></clipPath></defs><g fill="rgb(0%, 0%, 0%)" fill-opacity="1"><g transform="translate(34.664113, 18.852322)"><g><path d="M 6.796875 -11.703125 L 11.515625 0 L 8.65625 0 L 7.78125 -2.34375 L 3.328125 -2.34375 L 2.46875 0 L -0.390625 0 L 4.328125 -11.703125 Z M 6.875 -4.6875 L 5.578125 -8.09375 L 5.546875 -8.09375 L 4.234375 -4.6875 Z M 6.875 -4.6875 "/></g></g></g><g fill="rgb(0%, 0%, 0%)" fill-opacity="1"><g transform="translate(46.752005, 18.852322)"><g><path d="M 9.84375 -11.703125 L 9.84375 -4.15625 C 9.84375 -2.71875 9.453125 -1.628906 8.671875 -0.890625 C 7.898438 -0.148438 6.765625 0.21875 5.265625 0.21875 C 3.773438 0.21875 2.640625 -0.148438 1.859375 -0.890625 C 1.085938 -1.628906 0.703125 -2.71875 0.703125 -4.15625 L 0.703125 -11.703125 L 3.375 -11.703125 L 3.375 -4.9375 C 3.375 -3.988281 3.519531 -3.328125 3.8125 -2.953125 C 4.113281 -2.585938 4.597656 -2.40625 5.265625 -2.40625 C 5.941406 -2.40625 6.425781 -2.585938 6.71875 -2.953125 C 7.019531 -3.328125 7.171875 -3.988281 7.171875 -4.9375 L 7.171875 -11.703125 Z M 9.84375 -11.703125 "/></g></g></g><g fill="rgb(0%, 0%, 0%)" fill-opacity="1"><g transform="translate(58.272395, 18.852322)"><g><path d="M 0.84375 -11.703125 L 5.03125 -11.703125 C 6.15625 -11.703125 7.070312 -11.398438 7.78125 -10.796875 C 8.5 -10.203125 8.859375 -9.347656 8.859375 -8.234375 C 8.859375 -7.367188 8.640625 -6.644531 8.203125 -6.0625 C 7.773438 -5.476562 7.191406 -5.070312 6.453125 -4.84375 L 10.484375 0 L 7.09375 0 L 3.515625 -4.625 L 3.515625 0 L 0.84375 0 Z M 3.515625 -6.515625 L 3.828125 -6.515625 C 4.078125 -6.515625 4.285156 -6.519531 4.453125 -6.53125 C 4.617188 -6.539062 4.8125 -6.570312 5.03125 -6.625 C 5.25 -6.675781 5.425781 -6.753906 5.5625 -6.859375 C 5.695312 -6.960938 5.8125 -7.113281 5.90625 -7.3125 C 6 -7.519531 6.046875 -7.765625 6.046875 -8.046875 C 6.046875 -8.328125 6 -8.566406 5.90625 -8.765625 C 5.8125 -8.960938 5.695312 -9.113281 5.5625 -9.21875 C 5.425781 -9.320312 5.25 -9.398438 5.03125 -9.453125 C 4.8125 -9.515625 4.617188 -9.550781 4.453125 -9.5625 C 4.285156 -9.570312 4.078125 -9.578125 3.828125 -9.578125 L 3.515625 -9.578125 Z M 3.515625 -6.515625 "/></g></g></g><g fill="rgb(0%, 0%, 0%)" fill-opacity="1"><g transform="translate(69.39554, 18.852322)"><g><path d="M 6.796875 -11.703125 L 11.515625 0 L 8.65625 0 L 7.78125 -2.34375 L 3.328125 -2.34375 L 2.46875 0 L -0.390625 0 L 4.328125 -11.703125 Z M 6.875 -4.6875 L 5.578125 -8.09375 L 5.546875 -8.09375 L 4.234375 -4.6875 Z M 6.875 -4.6875 "/></g></g></g><g fill="rgb(0%, 0%, 0%)" fill-opacity="1"><g transform="translate(81.48343, 18.852322)"><g><path d="M 0.84375 -11.703125 L 4.484375 -11.703125 C 5.578125 -11.703125 6.453125 -11.46875 7.109375 -11 C 7.765625 -10.53125 8.09375 -9.769531 8.09375 -8.71875 C 8.09375 -7.550781 7.601562 -6.71875 6.625 -6.21875 C 8.289062 -5.925781 9.125 -4.941406 9.125 -3.265625 C 9.125 -2.273438 8.78125 -1.484375 8.09375 -0.890625 C 7.414062 -0.296875 6.484375 0 5.296875 0 L 0.84375 0 Z M 3.515625 -7.125 L 3.734375 -7.125 C 4.328125 -7.125 4.769531 -7.226562 5.0625 -7.4375 C 5.351562 -7.644531 5.5 -7.984375 5.5 -8.453125 C 5.5 -9.242188 4.910156 -9.640625 3.734375 -9.640625 L 3.515625 -9.640625 Z M 3.515625 -2.0625 L 4.359375 -2.0625 C 5.660156 -2.0625 6.3125 -2.492188 6.3125 -3.359375 C 6.3125 -3.878906 6.144531 -4.253906 5.8125 -4.484375 C 5.488281 -4.710938 5.003906 -4.828125 4.359375 -4.828125 L 3.515625 -4.828125 Z M 3.515625 -2.0625 "/></g></g></g><g fill="rgb(0%, 0%, 0%)" fill-opacity="1"><g transform="translate(91.897212, 18.852322)"><g><path d="M 7.546875 -11.703125 L 7.546875 -9.359375 L 3.515625 -9.359375 L 3.515625 -7.03125 L 7.375 -7.03125 L 7.375 -4.703125 L 3.515625 -4.703125 L 3.515625 -2.34375 L 7.546875 -2.34375 L 7.546875 0 L 0.84375 0 L 0.84375 -11.703125 Z M 7.546875 -11.703125 "/></g></g></g><g fill="rgb(0%, 0%, 0%)" fill-opacity="1"><g transform="translate(101.09088, 18.852322)"><g><path d="M 6.796875 -11.703125 L 11.515625 0 L 8.65625 0 L 7.78125 -2.34375 L 3.328125 -2.34375 L 2.46875 0 L -0.390625 0 L 4.328125 -11.703125 Z M 6.875 -4.6875 L 5.578125 -8.09375 L 5.546875 -8.09375 L 4.234375 -4.6875 Z M 6.875 -4.6875 "/></g></g></g><g fill="rgb(0%, 0%, 0%)" fill-opacity="1"><g transform="translate(113.17877, 18.852322)"><g><path d="M 0.84375 -11.703125 L 5.03125 -11.703125 C 6.15625 -11.703125 7.070312 -11.398438 7.78125 -10.796875 C 8.5 -10.203125 8.859375 -9.347656 8.859375 -8.234375 C 8.859375 -7.367188 8.640625 -6.644531 8.203125 -6.0625 C 7.773438 -5.476562 7.191406 -5.070312 6.453125 -4.84375 L 10.484375 0 L 7.09375 0 L 3.515625 -4.625 L 3.515625 0 L 0.84375 0 Z M 3.515625 -6.515625 L 3.828125 -6.515625 C 4.078125 -6.515625 4.285156 -6.519531 4.453125 -6.53125 C 4.617188 -6.539062 4.8125 -6.570312 5.03125 -6.625 C 5.25 -6.675781 5.425781 -6.753906 5.5625 -6.859375 C 5.695312 -6.960938 5.8125 -7.113281 5.90625 -7.3125 C 6 -7.519531 6.046875 -7.765625 6.046875 -8.046875 C 6.046875 -8.328125 6 -8.566406 5.90625 -8.765625 C 5.8125 -8.960938 5.695312 -9.113281 5.5625 -9.21875 C 5.425781 -9.320312 5.25 -9.398438 5.03125 -9.453125 C 4.8125 -9.515625 4.617188 -9.550781 4.453125 -9.5625 C 4.285156 -9.570312 4.078125 -9.578125 3.828125 -9.578125 L 3.515625 -9.578125 Z M 3.515625 -6.515625 "/></g></g></g><g mask="url(#id2)"><g transform="matrix(1, 0, 0, 1, 9, 6)"><g clip-path="url(#id5)"><g clip-path="url(#id3)"><g clip-path="url(#id4)"><path fill="rgb(13.699341%, 12.199402%, 12.5%)" d="M 27.441406 8.992188 L 10.007812 -8.683594 L -7.691406 8.726562 L 9.738281 26.402344 Z M 27.441406 8.992188 " fill-opacity="1" fill-rule="nonzero"/></g></g></g></g></g><g mask="url(#id6)"><g transform="matrix(1, 0, 0, 1, 8, 7)"><g clip-path="url(#id9)"><g clip-path="url(#id7)"><g clip-path="url(#id8)"><path fill="rgb(13.699341%, 12.199402%, 12.5%)" d="M 1.460938 -2.980469 L -1.335938 14.488281 L 20.816406 18.203125 L 23.613281 0.734375 Z M 1.460938 -2.980469 " fill-opacity="1" fill-rule="nonzero"/></g></g></g></g></g><g mask="url(#id10)"><g transform="matrix(1, 0, 0, 1, 10, 4)"><g clip-path="url(#id13)"><g clip-path="url(#id11)"><g clip-path="url(#id12)"><path fill="rgb(13.699341%, 12.199402%, 12.5%)" d="M 20.273438 19.703125 L 17.828125 -0.984375 L -1.539062 1.367188 L 0.90625 22.054688 Z M 20.273438 19.703125 " fill-opacity="1" fill-rule="nonzero"/></g></g></g></g></g><path fill="rgb(100%, 100%, 100%)" d="M 19.949219 14.175781 C 19.707031 14.039062 19.429688 13.972656 19.152344 13.972656 C 19.144531 13.972656 19.132812 13.976562 19.121094 13.976562 C 19.109375 13.976562 19.097656 13.972656 19.089844 13.972656 C 18.816406 13.972656 18.535156 14.039062 18.292969 14.175781 C 18.015625 14.332031 17.792969 14.53125 17.789062 14.800781 C 17.78125 15.296875 18.058594 15.699219 18.582031 15.996094 C 18.746094 16.085938 18.917969 16.128906 19.089844 16.128906 C 19.097656 16.128906 19.109375 16.128906 19.121094 16.128906 C 19.132812 16.128906 19.144531 16.128906 19.152344 16.128906 C 19.324219 16.128906 19.496094 16.085938 19.660156 15.996094 C 20.179688 15.699219 20.460938 15.296875 20.453125 14.800781 C 20.449219 14.53125 20.226562 14.332031 19.949219 14.175781 " fill-opacity="1" fill-rule="nonzero"/><path fill="rgb(100%, 100%, 100%)" d="M 20.675781 16.449219 C 20.203125 16.722656 19.660156 16.847656 19.121094 16.855469 C 18.582031 16.847656 18.039062 16.722656 17.566406 16.449219 C 17.011719 16.128906 16.566406 15.734375 16.554688 15.1875 C 16.539062 14.191406 17.097656 13.382812 18.144531 12.785156 C 18.457031 12.609375 18.789062 12.519531 19.121094 12.519531 C 19.457031 12.519531 19.789062 12.609375 20.097656 12.785156 C 21.144531 13.382812 21.703125 14.191406 21.6875 15.1875 C 21.679688 15.734375 21.230469 16.128906 20.679688 16.449219 M 24.605469 15.625 C 24.410156 14.65625 24.21875 13.683594 24.039062 12.710938 C 23.917969 12.042969 23.875 11.378906 24.132812 10.726562 C 24.21875 10.507812 24.234375 10.261719 24.285156 10.027344 C 24.269531 9.070312 23.503906 8.492188 22.601562 8.78125 C 22.398438 8.847656 22.1875 8.925781 22.011719 9.046875 C 21.625 9.3125 21.261719 9.613281 20.878906 9.886719 C 20.777344 9.960938 20.644531 10.023438 20.523438 10.023438 C 20.054688 10.03125 19.589844 10.03125 19.121094 10.03125 C 18.65625 10.03125 18.1875 10.03125 17.722656 10.023438 C 17.601562 10.023438 17.464844 9.960938 17.367188 9.886719 C 16.980469 9.613281 16.617188 9.3125 16.230469 9.046875 C 16.054688 8.925781 15.847656 8.847656 15.644531 8.78125 C 14.742188 8.492188 13.976562 9.070312 13.960938 10.027344 C 14.007812 10.261719 14.023438 10.507812 14.113281 10.726562 C 14.371094 11.378906 14.328125 12.042969 14.203125 12.710938 C 14.023438 13.683594 13.832031 14.65625 13.636719 15.625 C 13.511719 16.246094 13.605469 16.828125 13.875 17.398438 C 14.535156 18.792969 15.632812 19.699219 17.0625 20.199219 C 17.707031 20.421875 18.386719 20.589844 19.0625 20.660156 C 19.101562 20.664062 19.140625 20.664062 19.179688 20.660156 C 19.183594 20.660156 19.183594 20.660156 19.183594 20.660156 C 19.855469 20.589844 20.535156 20.421875 21.179688 20.199219 C 22.609375 19.699219 23.707031 18.792969 24.367188 17.398438 C 24.640625 16.828125 24.730469 16.246094 24.605469 15.625 " fill-opacity="1" fill-rule="nonzero"/></svg>