<svg xmlns="http://www.w3.org/2000/svg" xmlns:xlink="http://www.w3.org/1999/xlink" width="400" zoomAndPan="magnify" viewBox="0 0 300 149.999998" height="200" preserveAspectRatio="xMidYMid meet" version="1.0"><defs><g/><clipPath id="id1"><path d="M 10.304688 0 L 160.304688 0 L 160.304688 150 L 10.304688 150 Z M 10.304688 0 " clip-rule="nonzero"/></clipPath></defs><g clip-path="url(#id1)"><path fill="#000000" d="M 85.304688 0 L 10.304688 0 L 10.304688 150 L 85.304688 150 C 126.714844 150 160.304688 116.410156 160.304688 75 C 160.304688 33.589844 126.714844 0 85.304688 0 Z M 85.304688 148.464844 L 11.839844 148.464844 L 11.839844 1.535156 L 85.304688 1.535156 C 125.796875 1.535156 158.769531 34.507812 158.769531 75 C 158.769531 115.644531 125.949219 148.464844 85.304688 148.464844 Z M 85.304688 148.464844 " fill-opacity="1" fill-rule="nonzero"/></g><path fill="#000000" d="M 84.84375 11.351562 L 21.195312 11.351562 L 21.195312 138.648438 L 84.84375 138.648438 C 119.96875 138.648438 148.496094 110.121094 148.496094 75 C 148.496094 39.878906 119.96875 11.351562 84.84375 11.351562 Z M 84.84375 137.117188 L 22.730469 137.117188 L 22.730469 12.882812 L 84.84375 12.882812 C 119.046875 12.882812 146.960938 40.796875 146.960938 75 C 146.960938 109.203125 119.199219 137.117188 84.84375 137.117188 Z M 84.84375 137.117188 " fill-opacity="1" fill-rule="nonzero"/><path fill="#000000" d="M 84.539062 22.699219 L 32.085938 22.699219 L 32.085938 127.300781 L 84.386719 127.300781 C 113.21875 127.300781 136.6875 103.835938 136.6875 75 C 136.6875 46.164062 113.371094 22.699219 84.539062 22.699219 Z M 84.539062 125.765625 L 33.617188 125.765625 L 33.617188 24.234375 L 84.386719 24.234375 C 112.453125 24.234375 135.152344 47.085938 135.152344 75 C 135.152344 102.914062 112.453125 125.765625 84.539062 125.765625 Z M 84.539062 125.765625 " fill-opacity="1" fill-rule="nonzero"/><path fill="#000000" d="M 84.078125 34.050781 L 43.128906 34.050781 L 43.128906 115.949219 L 84.078125 115.949219 C 106.625 115.949219 125.027344 97.546875 125.027344 75 C 125.027344 52.453125 106.625 34.050781 84.078125 34.050781 Z M 84.078125 114.417969 L 44.660156 114.417969 L 44.660156 35.582031 L 84.078125 35.582031 C 105.855469 35.582031 123.496094 53.222656 123.496094 75 C 123.496094 96.777344 105.703125 114.417969 84.078125 114.417969 Z M 84.078125 114.417969 " fill-opacity="1" fill-rule="nonzero"/><path fill="#000000" d="M 83.617188 45.398438 L 54.015625 45.398438 L 54.015625 104.601562 L 83.617188 104.601562 C 99.875 104.601562 113.21875 91.257812 113.21875 75 C 113.21875 58.742188 99.875 45.398438 83.617188 45.398438 Z M 83.617188 103.066406 L 55.550781 103.066406 L 55.550781 46.933594 L 83.617188 46.933594 C 99.109375 46.933594 111.6875 59.507812 111.6875 75 C 111.6875 90.492188 99.109375 103.066406 83.617188 103.066406 Z M 83.617188 103.066406 " fill-opacity="1" fill-rule="nonzero"/><path fill="#000000" d="M 83.15625 56.75 L 64.90625 56.75 L 64.90625 93.25 L 83.15625 93.25 C 93.28125 93.25 101.410156 85.121094 101.410156 75 C 101.410156 64.878906 93.28125 56.75 83.15625 56.75 Z M 83.15625 91.71875 L 66.441406 91.71875 L 66.441406 58.28125 L 83.15625 58.28125 C 92.359375 58.28125 99.875 65.796875 99.875 75 C 99.875 84.203125 92.359375 91.71875 83.15625 91.71875 Z M 83.15625 91.71875 " fill-opacity="1" fill-rule="nonzero"/><g fill="#000000" fill-opacity="1"><g transform="translate(63.4117, 92.239981)"><g><path d="M 2.5 -34.359375 L 12.453125 -34.359375 C 17.234375 -34.359375 21.316406 -32.726562 24.703125 -29.46875 C 28.085938 -26.207031 29.78125 -22.117188 29.78125 -17.203125 C 29.78125 -12.265625 28.09375 -8.160156 24.71875 -4.890625 C 21.34375 -1.628906 17.253906 0 12.453125 0 L 2.5 0 Z M 10.328125 -7 L 11.53125 -7 C 14.394531 -7 16.734375 -7.960938 18.546875 -9.890625 C 20.367188 -11.816406 21.296875 -14.238281 21.328125 -17.15625 C 21.328125 -20.070312 20.414062 -22.503906 18.59375 -24.453125 C 16.78125 -26.398438 14.425781 -27.375 11.53125 -27.375 L 10.328125 -27.375 Z M 10.328125 -7 "/></g></g></g><g fill="#000000" fill-opacity="1"><g transform="translate(93.322572, 92.239981)"><g><path d="M 3.953125 -2.640625 C 1.953125 -4.828125 0.953125 -7.5 0.953125 -10.65625 C 0.953125 -13.820312 1.953125 -16.503906 3.953125 -18.703125 C 5.953125 -20.898438 8.492188 -22 11.578125 -22 C 14.410156 -22 16.742188 -21.109375 18.578125 -19.328125 L 18.578125 -21.375 L 25.953125 -21.375 L 25.953125 0 L 18.65625 0 L 18.65625 -2.421875 L 18.578125 -2.421875 C 16.742188 -0.390625 14.410156 0.625 11.578125 0.625 C 8.492188 0.625 5.953125 -0.460938 3.953125 -2.640625 Z M 10.21875 -14.28125 C 9.269531 -13.34375 8.796875 -12.132812 8.796875 -10.65625 C 8.796875 -9.1875 9.25 -7.988281 10.15625 -7.0625 C 11.070312 -6.132812 12.28125 -5.671875 13.78125 -5.671875 C 15.226562 -5.671875 16.414062 -6.140625 17.34375 -7.078125 C 18.28125 -8.023438 18.75 -9.21875 18.75 -10.65625 C 18.75 -12.132812 18.269531 -13.34375 17.3125 -14.28125 C 16.351562 -15.226562 15.175781 -15.703125 13.78125 -15.703125 C 12.363281 -15.703125 11.175781 -15.226562 10.21875 -14.28125 Z M 10.21875 -14.28125 "/></g></g></g><g fill="#000000" fill-opacity="1"><g transform="translate(120.942217, 92.239981)"><g><path d="M 3.75 -21.375 L 3.75 -29.328125 L 11.125 -29.328125 L 11.125 -21.375 L 15.625 -21.375 L 15.625 -15.75 L 11.125 -15.75 L 11.125 -8.953125 C 11.125 -6.984375 11.675781 -6 12.78125 -6 C 13.0625 -6 13.351562 -6.050781 13.65625 -6.15625 C 13.96875 -6.269531 14.207031 -6.382812 14.375 -6.5 L 14.625 -6.671875 L 16.453125 -0.703125 C 14.867188 0.179688 13.0625 0.625 11.03125 0.625 C 9.644531 0.625 8.453125 0.382812 7.453125 -0.09375 C 6.453125 -0.582031 5.695312 -1.238281 5.1875 -2.0625 C 4.675781 -2.882812 4.304688 -3.742188 4.078125 -4.640625 C 3.859375 -5.546875 3.75 -6.515625 3.75 -7.546875 L 3.75 -15.75 L 0.671875 -15.75 L 0.671875 -21.375 Z M 3.75 -21.375 "/></g></g></g><g fill="#000000" fill-opacity="1"><g transform="translate(136.564163, 92.239981)"><g><path d="M 3.953125 -2.640625 C 1.953125 -4.828125 0.953125 -7.5 0.953125 -10.65625 C 0.953125 -13.820312 1.953125 -16.503906 3.953125 -18.703125 C 5.953125 -20.898438 8.492188 -22 11.578125 -22 C 14.410156 -22 16.742188 -21.109375 18.578125 -19.328125 L 18.578125 -21.375 L 25.953125 -21.375 L 25.953125 0 L 18.65625 0 L 18.65625 -2.421875 L 18.578125 -2.421875 C 16.742188 -0.390625 14.410156 0.625 11.578125 0.625 C 8.492188 0.625 5.953125 -0.460938 3.953125 -2.640625 Z M 10.21875 -14.28125 C 9.269531 -13.34375 8.796875 -12.132812 8.796875 -10.65625 C 8.796875 -9.1875 9.25 -7.988281 10.15625 -7.0625 C 11.070312 -6.132812 12.28125 -5.671875 13.78125 -5.671875 C 15.226562 -5.671875 16.414062 -6.140625 17.34375 -7.078125 C 18.28125 -8.023438 18.75 -9.21875 18.75 -10.65625 C 18.75 -12.132812 18.269531 -13.34375 17.3125 -14.28125 C 16.351562 -15.226562 15.175781 -15.703125 13.78125 -15.703125 C 12.363281 -15.703125 11.175781 -15.226562 10.21875 -14.28125 Z M 10.21875 -14.28125 "/></g></g></g><g fill="#000000" fill-opacity="1"><g transform="translate(164.18381, 92.239981)"><g><path d="M 1.546875 5.25 L 7.578125 2.296875 C 8.691406 4.128906 10.625 5.046875 13.375 5.046875 C 14.644531 5.046875 15.828125 4.632812 16.921875 3.8125 C 18.023438 2.988281 18.578125 1.734375 18.578125 0.046875 L 18.578125 -1.546875 C 17.273438 -0.0976562 14.941406 0.625 11.578125 0.625 C 8.492188 0.625 5.953125 -0.460938 3.953125 -2.640625 C 1.953125 -4.828125 0.953125 -7.5 0.953125 -10.65625 C 0.953125 -13.820312 1.953125 -16.503906 3.953125 -18.703125 C 5.953125 -20.898438 8.492188 -22 11.578125 -22 C 14.328125 -22 16.617188 -21.148438 18.453125 -19.453125 L 18.578125 -19.453125 L 18.578125 -21.375 L 25.953125 -21.375 L 25.953125 0.578125 C 25.953125 4.054688 24.796875 6.738281 22.484375 8.625 C 20.179688 10.507812 17.144531 11.453125 13.375 11.453125 C 7.257812 11.453125 3.316406 9.382812 1.546875 5.25 Z M 10.21875 -14.28125 C 9.269531 -13.34375 8.796875 -12.132812 8.796875 -10.65625 C 8.796875 -9.1875 9.25 -7.988281 10.15625 -7.0625 C 11.070312 -6.132812 12.28125 -5.671875 13.78125 -5.671875 C 15.226562 -5.671875 16.414062 -6.140625 17.34375 -7.078125 C 18.28125 -8.023438 18.75 -9.21875 18.75 -10.65625 C 18.75 -12.132812 18.269531 -13.34375 17.3125 -14.28125 C 16.351562 -15.226562 15.175781 -15.703125 13.78125 -15.703125 C 12.363281 -15.703125 11.175781 -15.226562 10.21875 -14.28125 Z M 10.21875 -14.28125 "/></g></g></g><g fill="#000000" fill-opacity="1"><g transform="translate(191.803457, 92.239981)"><g><path d="M 24.125 -9.671875 L 8.625 -9.671875 C 8.625 -8.171875 9.109375 -7.054688 10.078125 -6.328125 C 11.046875 -5.609375 12.101562 -5.25 13.25 -5.25 C 14.4375 -5.25 15.378906 -5.40625 16.078125 -5.71875 C 16.773438 -6.039062 17.566406 -6.675781 18.453125 -7.625 L 23.78125 -4.953125 C 21.5625 -1.234375 17.867188 0.625 12.703125 0.625 C 9.484375 0.625 6.71875 -0.476562 4.40625 -2.6875 C 2.101562 -4.894531 0.953125 -7.550781 0.953125 -10.65625 C 0.953125 -13.769531 2.101562 -16.4375 4.40625 -18.65625 C 6.71875 -20.882812 9.484375 -22 12.703125 -22 C 16.085938 -22 18.84375 -21.019531 20.96875 -19.0625 C 23.09375 -17.101562 24.15625 -14.300781 24.15625 -10.65625 C 24.15625 -10.164062 24.144531 -9.835938 24.125 -9.671875 Z M 8.828125 -13.75 L 16.953125 -13.75 C 16.785156 -14.851562 16.347656 -15.703125 15.640625 -16.296875 C 14.929688 -16.898438 14.019531 -17.203125 12.90625 -17.203125 C 11.6875 -17.203125 10.71875 -16.878906 10 -16.234375 C 9.28125 -15.597656 8.890625 -14.769531 8.828125 -13.75 Z M 8.828125 -13.75 "/></g></g></g><g fill="#000000" fill-opacity="1"><g transform="translate(216.090398, 92.239981)"><g><path d="M 2.5 0 L 2.5 -21.375 L 9.875 -21.375 L 9.875 -19.125 L 9.953125 -19.125 C 11.867188 -21.039062 13.910156 -22 16.078125 -22 C 17.128906 -22 18.175781 -21.859375 19.21875 -21.578125 C 20.257812 -21.296875 21.257812 -20.863281 22.21875 -20.28125 C 23.175781 -19.695312 23.953125 -18.867188 24.546875 -17.796875 C 25.148438 -16.734375 25.453125 -15.492188 25.453125 -14.078125 L 25.453125 0 L 18.078125 0 L 18.078125 -12.078125 C 18.078125 -13.191406 17.722656 -14.164062 17.015625 -15 C 16.304688 -15.832031 15.382812 -16.25 14.25 -16.25 C 13.132812 -16.25 12.125 -15.816406 11.21875 -14.953125 C 10.320312 -14.085938 9.875 -13.128906 9.875 -12.078125 L 9.875 0 Z M 2.5 0 "/></g></g></g><g fill="#000000" fill-opacity="1"><g transform="translate(242.793539, 92.239981)"><g><path d="M 13.875 -15.953125 C 12.476562 -15.953125 11.28125 -15.4375 10.28125 -14.40625 C 9.289062 -13.382812 8.796875 -12.148438 8.796875 -10.703125 C 8.796875 -9.234375 9.289062 -7.984375 10.28125 -6.953125 C 11.28125 -5.929688 12.476562 -5.421875 13.875 -5.421875 C 14.539062 -5.421875 15.171875 -5.503906 15.765625 -5.671875 C 16.359375 -5.835938 16.796875 -6.003906 17.078125 -6.171875 L 17.453125 -6.421875 L 19.953125 -1.296875 C 19.753906 -1.148438 19.484375 -0.972656 19.140625 -0.765625 C 18.796875 -0.554688 18.003906 -0.273438 16.765625 0.078125 C 15.523438 0.441406 14.195312 0.625 12.78125 0.625 C 9.644531 0.625 6.890625 -0.476562 4.515625 -2.6875 C 2.140625 -4.894531 0.953125 -7.539062 0.953125 -10.625 C 0.953125 -13.726562 2.140625 -16.398438 4.515625 -18.640625 C 6.890625 -20.878906 9.644531 -22 12.78125 -22 C 14.195312 -22 15.503906 -21.832031 16.703125 -21.5 C 17.898438 -21.164062 18.75 -20.832031 19.25 -20.5 L 19.953125 -20 L 17.453125 -14.953125 C 16.535156 -15.617188 15.34375 -15.953125 13.875 -15.953125 Z M 13.875 -15.953125 "/></g></g></g><g fill="#000000" fill-opacity="1"><g transform="translate(262.414714, 92.239981)"><g><path d="M 18.703125 -21.375 L 27.203125 -21.375 L 10.421875 10.828125 L 1.921875 10.828125 L 9.296875 -3.328125 L -0.828125 -21.375 L 7.671875 -21.375 L 13.625 -10.421875 Z M 18.703125 -21.375 "/></g></g></g></svg>